# xmcd CD database file
# Copyright (C) 1996 Ti Kan
#
# Track frame offsets:
#	150
#	26925
#	42600
#	65025
#	79200
#	98700
#	147750
#	165000
#	180150
#	198825
#	221700
#	245325
#	269700
#
# Disc length: 3899 seconds
#
# Revision: 1
# Processed by: cddbd v1.4b41PL1 Copyright (c) Steve Scherf et al.
# Submitted via: EasyCD 2.21 - (C) 1996 Greg Leichner
#
DISCID=b70f390d
DTITLE=Arlen Roth - Arlen Roth
DYEAR=1900
DGENRE=
TTITLE0=A Change is Gonna Come
TTITLE1=Dreams of Mexico
TTITLE2=A Fool Like Me
TTITLE3=Landslide
TTITLE4=Farther Along
TTITLE5=Laughing at the Blues
TTITLE6=The Kids on the Block
TTITLE7=Not Her Usual Man
TTITLE8=Poor Side of Town
TTITLE9=Restless Age
TTITLE10=North Sea
TTITLE11=On a Cold, Dark Night 
TTITLE12=August Nights
EXTD=
EXTT0=
EXTT1=
EXTT2=
EXTT3=
EXTT4=
EXTT5=
EXTT6=
EXTT7=
EXTT8=
EXTT9=
EXTT10=
EXTT11=
EXTT12=
PLAYORDER=
